<?xml version="1.0" standalone="no"?>
<!DOCTYPE svg PUBLIC "-//W3C//DTD SVG 20010904//EN"
 "http://www.w3.org/TR/2001/REC-SVG-20010904/DTD/svg10.dtd">
<svg version="1.0" xmlns="http://www.w3.org/2000/svg"
 width="512.000000pt" height="512.000000pt" viewBox="0 0 512.000000 512.000000"
 preserveAspectRatio="xMidYMid meet">
<metadata>
Created by potrace 1.14, written by Peter Selinger 2001-2017
</metadata>
<g transform="translate(0.000000,512.000000) scale(0.100000,-0.100000)"
fill="#000000" stroke="none">
<path d="M1718 5115 c-2 -1 -25 -5 -53 -9 -27 -3 -70 -8 -95 -11 -25 -3 -82
-15 -126 -26 -45 -11 -90 -21 -100 -23 -87 -18 -312 -116 -439 -191 -305 -181
-580 -485 -729 -808 -74 -161 -130 -348 -152 -507 -3 -25 -8 -54 -11 -65 -9
-36 -10 -352 -2 -412 5 -32 11 -80 14 -108 9 -69 51 -233 85 -329 71 -205 186
-408 330 -581 90 -109 296 -289 422 -368 251 -158 549 -257 853 -283 58 -4
265 -5 311 0 232 24 443 81 638 170 84 39 209 109 239 135 17 14 26 7 119 -86
l102 -102 -50 -49 c-28 -28 -58 -65 -67 -83 -18 -40 -16 -103 7 -147 38 -74
139 -112 205 -77 18 9 34 15 36 13 2 -2 90 -122 195 -268 344 -474 541 -715
633 -778 60 -41 164 -89 222 -102 73 -17 198 -21 270 -10 121 19 274 99 357
187 129 136 190 297 184 483 -7 183 -72 325 -212 461 -85 82 -70 69 -214 181
-69 54 -129 101 -135 106 -5 4 -26 19 -45 32 -19 14 -42 30 -50 37 -33 26
-169 125 -335 243 -151 107 -175 128 -169 145 27 80 10 163 -43 204 -73 58
-160 48 -242 -30 -29 -27 -55 -49 -59 -49 -4 0 -50 43 -102 95 -83 83 -93 97
-82 113 7 9 15 24 19 32 4 8 23 42 43 75 58 96 157 325 175 405 1 8 12 53 23
100 43 178 60 470 37 625 -3 22 -8 58 -11 80 -5 35 -14 78 -43 205 -15 63 -62
193 -103 285 -127 283 -343 549 -598 736 -240 175 -536 295 -840 340 -71 10
-403 21 -412 14z"/>
</g>
</svg>
